<svg width="40" height="38" viewBox="0 0 40 38" fill="none" xmlns="http://www.w3.org/2000/svg">
<rect x="4.79102" y="3.5" width="30" height="27.0422" rx="3.5" stroke="black" stroke-width="3"/>
<g clip-path="url(#clip0)">
<path d="M20.1825 7.52124C17.0645 7.52124 15.045 8.73483 13.4595 10.8992C13.1719 11.2918 13.2606 11.8301 13.6618 12.1191L15.3469 13.3329C15.7521 13.6248 16.3286 13.5565 16.6458 13.179C17.6243 12.0144 18.3501 11.344 19.8785 11.344C21.0802 11.344 22.5666 12.0787 22.5666 13.1857C22.5666 14.0226 21.8394 14.4524 20.6529 15.0844C19.2691 15.8214 17.438 16.7386 17.438 19.033V19.3962C17.438 19.8881 17.8578 20.2869 18.3755 20.2869H21.2064C21.7242 20.2869 22.1439 19.8881 22.1439 19.3962V19.182C22.1439 17.5915 27.0372 17.5253 27.0372 13.2212C27.0373 9.97996 23.4981 7.52124 20.1825 7.52124ZM19.791 21.3801C18.299 21.3801 17.0851 22.5332 17.0851 23.9507C17.0851 25.3681 18.299 26.5212 19.791 26.5212C21.283 26.5212 22.4969 25.3681 22.4969 23.9506C22.4969 22.5332 21.283 21.3801 19.791 21.3801Z" fill="black"/>
</g>
<defs>
<clipPath id="clip0">
<rect width="15" height="19" fill="white" transform="translate(12.291 7.52124)"/>
</clipPath>
</defs>
</svg>
