<svg width="48" height="48" viewBox="0 0 48 48" fill="none" xmlns="http://www.w3.org/2000/svg">
<path d="M29.0333 13.661V34.1364C29.0333 35.244 27.6694 35.803 26.8826 35.0163L16.5699 24.7786C16.0768 24.292 16.0768 23.5157 16.5699 23.0292L26.8826 12.7915C27.6694 11.9944 29.0333 12.5534 29.0333 13.661ZM47.4976 5.67993V42.1174C47.4976 44.8606 45.242 47.0862 42.4618 47.0862H5.53327C2.75314 47.0862 0.497559 44.8606 0.497559 42.1174V5.67993C0.497559 2.93677 2.75314 0.711182 5.53327 0.711182H42.4618C45.242 0.711182 47.4976 2.93677 47.4976 5.67993ZM42.4618 41.4963V6.30103C42.4618 5.95942 42.1786 5.67993 41.8324 5.67993H6.16274C5.81653 5.67993 5.53327 5.95942 5.53327 6.30103V41.4963C5.53327 41.8379 5.81653 42.1174 6.16274 42.1174H41.8324C42.1786 42.1174 42.4618 41.8379 42.4618 41.4963Z" fill="black"/>
</svg>
