<svg width="38" height="37" viewBox="0 0 38 37" fill="none" xmlns="http://www.w3.org/2000/svg">
<rect x="3.83173" y="4.5" width="30" height="27.0422" rx="3.5" stroke="black" stroke-width="3"/>
<g clip-path="url(#clip0)">
<path d="M18.8317 7.83374C13.4815 7.83374 9.14423 12.171 9.14423 17.5212C9.14423 22.8715 13.4815 27.2087 18.8317 27.2087C24.182 27.2087 28.5192 22.8715 28.5192 17.5212C28.5192 12.171 24.182 7.83374 18.8317 7.83374ZM18.8317 25.3337C14.5141 25.3337 11.0192 21.8396 11.0192 17.5212C11.0192 13.2036 14.5134 9.70874 18.8317 9.70874C23.1494 9.70874 26.6442 13.2029 26.6442 17.5212C26.6442 21.8389 23.15 25.3337 18.8317 25.3337ZM23.0251 21.3859C22.6496 21.7653 21.2466 23.003 18.9601 23.003C15.7402 23.003 13.4724 20.6035 13.4724 17.473C13.4724 14.3811 15.8269 12.0276 18.9319 12.0276C21.1011 12.0276 22.3982 13.0675 22.7441 13.3862C22.8254 13.461 22.8776 13.5621 22.8914 13.6716C22.9053 13.7812 22.8799 13.8921 22.8197 13.9847L22.1106 15.0829C21.9605 15.3153 21.6431 15.3673 21.427 15.197C21.0913 14.9323 20.1843 14.3166 19.0165 14.3166C17.1297 14.3166 15.9729 15.6967 15.9729 17.4448C15.9729 19.0694 17.0232 20.714 19.0306 20.714C20.3063 20.714 21.2511 19.9703 21.5981 19.6505C21.8039 19.4608 22.1291 19.4928 22.2941 19.7184L23.0701 20.7798C23.1363 20.8695 23.1681 20.98 23.1598 21.0912C23.1516 21.2024 23.1038 21.3069 23.0251 21.3859Z" fill="black"/>
</g>
<defs>
<clipPath id="clip0">
<rect width="20" height="20" fill="white" transform="translate(8.83173 7.52124)"/>
</clipPath>
</defs>
</svg>
