<svg width="21" height="21" viewBox="0 0 21 21" fill="none" xmlns="http://www.w3.org/2000/svg">
<g clip-path="url(#clip0)">
<path d="M10.2795 0.463379C4.92927 0.463379 0.592041 4.80061 0.592041 10.1509C0.592041 15.5012 4.92927 19.8384 10.2795 19.8384C15.6298 19.8384 19.967 15.5012 19.967 10.1509C19.967 4.80061 15.6298 0.463379 10.2795 0.463379ZM10.2795 17.9634C5.96188 17.9634 2.46704 14.4692 2.46704 10.1509C2.46704 5.83326 5.96122 2.33838 10.2795 2.33838C14.5972 2.33838 18.092 5.83256 18.092 10.1509C18.092 14.4685 14.5979 17.9634 10.2795 17.9634ZM14.4729 14.0156C14.0974 14.3949 12.6944 15.6326 10.4079 15.6326C7.18798 15.6326 4.92024 13.2332 4.92024 10.1026C4.92024 7.01076 7.27474 4.65729 10.3797 4.65729C12.5489 4.65729 13.846 5.69713 14.1919 6.01584C14.2732 6.09059 14.3254 6.19171 14.3392 6.30126C14.3531 6.41082 14.3277 6.52174 14.2675 6.61436L13.5584 7.71252C13.4083 7.94494 13.0909 7.99697 12.8748 7.82662C12.5391 7.56193 11.6321 6.94623 10.4643 6.94623C8.57751 6.94623 7.42075 8.32631 7.42075 10.0744C7.42075 11.699 8.47107 13.3437 10.4784 13.3437C11.7541 13.3437 12.6989 12.5999 13.0459 12.2802C13.2517 12.0904 13.577 12.1224 13.742 12.3481L14.5179 13.4094C14.5841 13.4991 14.6159 13.6096 14.6077 13.7208C14.5994 13.832 14.5516 13.9366 14.4729 14.0156Z" fill="black"/>
</g>
<defs>
<clipPath id="clip0">
<rect width="20" height="20" fill="white" transform="translate(0.279541 0.150879)"/>
</clipPath>
</defs>
</svg>
