<svg width="21" height="31" viewBox="0 0 21 31" fill="none" xmlns="http://www.w3.org/2000/svg">
<g clip-path="url(#clip0)">
<path d="M14.5414 15.8623L20.2272 9.99883C20.9249 9.2793 20.9249 8.1127 20.2272 7.39258L18.9636 6.08945C18.2658 5.36992 17.1346 5.36992 16.4363 6.08945L10.7505 11.9529L5.06469 6.08945C4.36697 5.36992 3.23572 5.36992 2.53742 6.08945L1.27378 7.39258C0.576056 8.11211 0.576056 9.27871 1.27378 9.99883L6.95958 15.8623L1.27378 21.7258C0.576056 22.4453 0.576056 23.6119 1.27378 24.332L2.53742 25.6352C3.23515 26.3547 4.36697 26.3547 5.06469 25.6352L10.7505 19.7717L16.4363 25.6352C17.134 26.3547 18.2658 26.3547 18.9636 25.6352L20.2272 24.332C20.9249 23.6125 20.9249 22.4459 20.2272 21.7258L14.5414 15.8623Z" fill="black"/>
</g>
<defs>
<clipPath id="clip0">
<rect width="20" height="30" fill="white" transform="translate(0.750488 0.862305)"/>
</clipPath>
</defs>
</svg>
